<svg width="40" height="40" viewBox="0 0 40 40" fill="none" xmlns="http://www.w3.org/2000/svg">
    <rect width="40" height="40" rx="12" fill="#0057FF" />
    <rect x="5" y="5" width="30" height="30" rx="15" fill="#0057FF" />
    <path d="M16.5203 13.7166C17.0976 13.7166 17.6304 13.761 18.1189 13.8942C18.6073 13.983 19.007 14.1606 19.3622 14.3826C19.7175 14.6047 19.9839 14.9155 20.1615 15.3152C20.3392 15.7148 20.428 16.2033 20.428 16.7361C20.428 17.3578 20.2948 17.8907 19.9839 18.2903C19.7175 18.69 19.2734 19.0452 18.7406 19.3117C19.4955 19.5337 20.0727 19.9334 20.428 20.4662C20.7832 20.9991 21.0053 21.6652 21.0053 22.4201C21.0053 23.0418 20.872 23.5746 20.65 24.0187C20.428 24.4627 20.0727 24.8624 19.6731 25.1288C19.2734 25.3953 18.785 25.6173 18.2521 25.7505C17.7192 25.8837 17.1864 25.9725 16.6535 25.9725H10.7031V13.7166H16.5203ZM16.165 18.69C16.6535 18.69 17.0531 18.5568 17.364 18.3347C17.6748 18.1127 17.808 17.7131 17.808 17.2246C17.808 16.9582 17.7636 16.6917 17.6748 16.5141C17.586 16.3365 17.4528 16.2033 17.2752 16.0701C17.0976 15.9812 16.9199 15.8924 16.6979 15.848C16.4759 15.8036 16.2538 15.8036 15.9874 15.8036H13.4119V18.69H16.165ZM16.2982 23.9299C16.5647 23.9299 16.8311 23.8855 17.0531 23.8411C17.2752 23.7967 17.4972 23.7078 17.6748 23.5746C17.8524 23.4414 17.9857 23.3082 18.1189 23.0862C18.2077 22.8641 18.2965 22.5977 18.2965 22.2869C18.2965 21.6652 18.1189 21.2211 17.7636 20.9103C17.4084 20.6438 16.9199 20.5106 16.3427 20.5106H13.4119V23.9299H16.2982ZM24.8686 23.8855C25.2238 24.2407 25.7567 24.4183 26.4672 24.4183C26.9556 24.4183 27.3997 24.2851 27.7549 24.0631C28.1102 23.7967 28.3322 23.5302 28.421 23.2638H30.5969C30.2416 24.3295 29.7088 25.0844 28.9983 25.5729C28.2878 26.0169 27.4441 26.2834 26.4228 26.2834C25.7123 26.2834 25.0906 26.1502 24.5133 25.9281C23.936 25.7061 23.492 25.3953 23.0923 24.9512C22.6927 24.5516 22.3818 24.0631 22.2042 23.4858C21.9822 22.9085 21.8934 22.2869 21.8934 21.5764C21.8934 20.9103 21.9822 20.2886 22.2042 19.7113C22.4262 19.1341 22.7371 18.6456 23.1367 18.2015C23.5364 17.8019 24.0248 17.4466 24.5577 17.2246C25.135 17.0026 25.7123 16.8694 26.4228 16.8694C27.1777 16.8694 27.8437 17.0026 28.421 17.3134C28.9983 17.6243 29.4423 17.9795 29.7976 18.5124C30.1528 19.0008 30.4193 19.5781 30.5969 20.1998C30.6857 20.8215 30.7301 21.4432 30.6857 22.1536H24.2469C24.2469 22.8641 24.5133 23.5302 24.8686 23.8855ZM27.6661 19.2229C27.3553 18.912 26.8668 18.7344 26.2895 18.7344C25.8899 18.7344 25.579 18.8232 25.3126 18.9564C25.0462 19.0896 24.8686 19.2673 24.6909 19.4449C24.5133 19.6225 24.4245 19.8445 24.3801 20.0666C24.3357 20.2886 24.2913 20.4662 24.2913 20.6438H28.2878C28.199 19.9778 27.977 19.5337 27.6661 19.2229ZM23.7584 14.5603H28.7318V15.7592H23.7584V14.5603Z" fill="white" />
</svg>
    