<svg width="10" height="10" viewBox="0 0 10 10" fill="none" xmlns="http://www.w3.org/2000/svg">
    <path fill-rule="evenodd" clip-rule="evenodd" d="M6.66668 5C6.43668 5 6.25001 4.81333 6.25001 4.58333C6.25001 4.35333 6.43668 4.16667 6.66668 4.16667C6.89668 4.16667 7.08334 4.35333 7.08334 4.58333C7.08334 4.81333 6.89668 5 6.66668 5ZM5.00001 5C4.77001 5 4.58334 4.81333 4.58334 4.58333C4.58334 4.35333 4.77001 4.16667 5.00001 4.16667C5.23001 4.16667 5.41668 4.35333 5.41668 4.58333C5.41668 4.81333 5.23001 5 5.00001 5ZM3.33334 5C3.10334 5 2.91668 4.81333 2.91668 4.58333C2.91668 4.35333 3.10334 4.16667 3.33334 4.16667C3.56334 4.16667 3.75001 4.35333 3.75001 4.58333C3.75001 4.81333 3.56334 5 3.33334 5ZM7.91668 1.25H2.08334C1.39418 1.25 0.833344 1.81083 0.833344 2.5V8.75C0.833344 8.9 0.914177 9.03875 1.04459 9.1125C1.10834 9.14875 1.17918 9.16667 1.25001 9.16667C1.32418 9.16667 1.39834 9.14708 1.46459 9.10708L3.34959 7.97625C3.41459 7.93708 3.48876 7.91667 3.56418 7.91667H7.91668C8.60584 7.91667 9.16668 7.35583 9.16668 6.66667V2.5C9.16668 1.81083 8.60584 1.25 7.91668 1.25Z" fill="#231F20" />
    <mask id="mask0" mask-type="alpha" maskUnits="userSpaceOnUse" x="0" y="1" width="10" height="9">
        <path fill-rule="evenodd" clip-rule="evenodd" d="M6.66668 5C6.43668 5 6.25001 4.81333 6.25001 4.58333C6.25001 4.35333 6.43668 4.16667 6.66668 4.16667C6.89668 4.16667 7.08334 4.35333 7.08334 4.58333C7.08334 4.81333 6.89668 5 6.66668 5ZM5.00001 5C4.77001 5 4.58334 4.81333 4.58334 4.58333C4.58334 4.35333 4.77001 4.16667 5.00001 4.16667C5.23001 4.16667 5.41668 4.35333 5.41668 4.58333C5.41668 4.81333 5.23001 5 5.00001 5ZM3.33334 5C3.10334 5 2.91668 4.81333 2.91668 4.58333C2.91668 4.35333 3.10334 4.16667 3.33334 4.16667C3.56334 4.16667 3.75001 4.35333 3.75001 4.58333C3.75001 4.81333 3.56334 5 3.33334 5ZM7.91668 1.25H2.08334C1.39418 1.25 0.833344 1.81083 0.833344 2.5V8.75C0.833344 8.9 0.914177 9.03875 1.04459 9.1125C1.10834 9.14875 1.17918 9.16667 1.25001 9.16667C1.32418 9.16667 1.39834 9.14708 1.46459 9.10708L3.34959 7.97625C3.41459 7.93708 3.48876 7.91667 3.56418 7.91667H7.91668C8.60584 7.91667 9.16668 7.35583 9.16668 6.66667V2.5C9.16668 1.81083 8.60584 1.25 7.91668 1.25Z" fill="white" />
    </mask>
    <g mask="url(#mask0)">
        <rect width="10" height="10" fill="#50D86A" />
    </g>
</svg>
    