<svg width="10" height="10" viewBox="0 0 10 10" fill="none" xmlns="http://www.w3.org/2000/svg">
    <path fill-rule="evenodd" clip-rule="evenodd" d="M3.75004 4.58333C4.66921 4.58333 5.41671 3.83583 5.41671 2.91667C5.41671 1.9975 4.66921 1.25 3.75004 1.25C2.83087 1.25 2.08337 1.9975 2.08337 2.91667C2.08337 3.83583 2.83087 4.58333 3.75004 4.58333ZM7.08337 5.41667C7.77254 5.41667 8.33337 4.85583 8.33337 4.16667C8.33337 3.4775 7.77254 2.91667 7.08337 2.91667C6.39421 2.91667 5.83337 3.4775 5.83337 4.16667C5.83337 4.85583 6.39421 5.41667 7.08337 5.41667ZM9.16671 7.91667C9.16671 8.14667 8.98046 8.33333 8.75004 8.33333H6.66671C6.66671 8.56333 6.48046 8.75 6.25004 8.75H1.25004C1.01962 8.75 0.833374 8.56333 0.833374 8.33333C0.833374 6.725 2.14212 5.41667 3.75004 5.41667C4.55296 5.41667 5.28046 5.74292 5.80837 6.26917C6.17046 5.98917 6.61629 5.83333 7.08337 5.83333C8.23212 5.83333 9.16671 6.76792 9.16671 7.91667Z" fill="#231F20" />
    <mask id="mask0" mask-type="alpha" maskUnits="userSpaceOnUse" x="0" y="1" width="10" height="8">
        <path fill-rule="evenodd" clip-rule="evenodd" d="M3.75004 4.58333C4.66921 4.58333 5.41671 3.83583 5.41671 2.91667C5.41671 1.9975 4.66921 1.25 3.75004 1.25C2.83087 1.25 2.08337 1.9975 2.08337 2.91667C2.08337 3.83583 2.83087 4.58333 3.75004 4.58333ZM7.08337 5.41667C7.77254 5.41667 8.33337 4.85583 8.33337 4.16667C8.33337 3.4775 7.77254 2.91667 7.08337 2.91667C6.39421 2.91667 5.83337 3.4775 5.83337 4.16667C5.83337 4.85583 6.39421 5.41667 7.08337 5.41667ZM9.16671 7.91667C9.16671 8.14667 8.98046 8.33333 8.75004 8.33333H6.66671C6.66671 8.56333 6.48046 8.75 6.25004 8.75H1.25004C1.01962 8.75 0.833374 8.56333 0.833374 8.33333C0.833374 6.725 2.14212 5.41667 3.75004 5.41667C4.55296 5.41667 5.28046 5.74292 5.80837 6.26917C6.17046 5.98917 6.61629 5.83333 7.08337 5.83333C8.23212 5.83333 9.16671 6.76792 9.16671 7.91667Z" fill="white" />
    </mask>
    <g mask="url(#mask0)">
        <rect width="10" height="10" fill="#A86CE4" />
    </g>
</svg>
    