<svg width="10" height="10" viewBox="0 0 10 10" fill="none" xmlns="http://www.w3.org/2000/svg">
    <path fill-rule="evenodd" clip-rule="evenodd" d="M4.99997 8.74984C4.88914 8.74984 4.78331 8.70609 4.70497 8.62734L1.46872 5.38567C0.62039 4.53567 0.62039 3.15275 1.46872 2.30275C1.87831 1.89275 2.42539 1.6665 3.00831 1.6665C3.59122 1.6665 4.13831 1.89275 4.54789 2.30275L4.99997 2.75567L5.45164 2.30317C5.86164 1.89275 6.40872 1.6665 6.99164 1.6665C7.57456 1.6665 8.12164 1.89275 8.53122 2.30275C9.37956 3.15275 9.37956 4.53567 8.53164 5.38567L5.29497 8.62775C5.21664 8.70609 5.11081 8.74984 4.99997 8.74984Z" fill="#231F20" />
    <mask id="mask0" mask-type="alpha" maskUnits="userSpaceOnUse" x="0" y="1" width="10" height="8">
        <path fill-rule="evenodd" clip-rule="evenodd" d="M4.99997 8.74984C4.88914 8.74984 4.78331 8.70609 4.70497 8.62734L1.46872 5.38567C0.62039 4.53567 0.62039 3.15275 1.46872 2.30275C1.87831 1.89275 2.42539 1.6665 3.00831 1.6665C3.59122 1.6665 4.13831 1.89275 4.54789 2.30275L4.99997 2.75567L5.45164 2.30317C5.86164 1.89275 6.40872 1.6665 6.99164 1.6665C7.57456 1.6665 8.12164 1.89275 8.53122 2.30275C9.37956 3.15275 9.37956 4.53567 8.53164 5.38567L5.29497 8.62775C5.21664 8.70609 5.11081 8.74984 4.99997 8.74984Z" fill="white" />
    </mask>
    <g mask="url(#mask0)">
        <rect width="10" height="10" fill="#E24444" />
    </g>
</svg>
    