<svg width="30" height="30" viewBox="0 0 30 30" fill="none" xmlns="http://www.w3.org/2000/svg">
<circle cx="15" cy="15" r="15" fill="#4447E2"/>
<path fill-rule="evenodd" clip-rule="evenodd" d="M22.4935 10.8024C22.4918 10.7424 22.4743 10.6858 22.4585 10.6283C22.446 10.5799 22.4402 10.5308 22.4193 10.4866C22.4002 10.4433 22.3677 10.4083 22.3393 10.3683C22.3043 10.3174 22.2727 10.2666 22.2277 10.2249C22.2202 10.2174 22.2168 10.2074 22.2085 10.2008C22.1785 10.1749 22.1418 10.1658 22.1093 10.1449C22.0593 10.1124 22.0102 10.0791 21.9535 10.0574C21.8977 10.0374 21.8427 10.0324 21.7852 10.0241C21.7452 10.0183 21.7093 9.99992 21.6668 9.99992H17.5002C17.0393 9.99992 16.6668 10.3733 16.6668 10.8333C16.6668 11.2933 17.0393 11.6666 17.5002 11.6666H19.8552L16.4918 15.5899L12.9285 13.4524C12.576 13.2391 12.1227 13.3174 11.8593 13.6333L7.69267 18.6333C7.3985 18.9866 7.446 19.5124 7.79934 19.8066C7.956 19.9366 8.14434 19.9999 8.33267 19.9999C8.57184 19.9999 8.8085 19.8983 8.9735 19.6999L12.6835 15.2483L16.2377 17.3816C16.5868 17.5908 17.0352 17.5174 17.2993 17.2091L20.8335 13.0858V14.9999C20.8335 15.4599 21.206 15.8333 21.6668 15.8333C22.1277 15.8333 22.5002 15.4599 22.5002 14.9999V10.8333C22.5002 10.8224 22.4943 10.8133 22.4935 10.8024Z" fill="#231F20"/>
<mask id="mask0" mask-type="alpha" maskUnits="userSpaceOnUse" x="7" y="10" width="16" height="10">
<path fill-rule="evenodd" clip-rule="evenodd" d="M22.4935 10.8024C22.4918 10.7424 22.4743 10.6858 22.4585 10.6283C22.446 10.5799 22.4402 10.5308 22.4193 10.4866C22.4002 10.4433 22.3677 10.4083 22.3393 10.3683C22.3043 10.3174 22.2727 10.2666 22.2277 10.2249C22.2202 10.2174 22.2168 10.2074 22.2085 10.2008C22.1785 10.1749 22.1418 10.1658 22.1093 10.1449C22.0593 10.1124 22.0102 10.0791 21.9535 10.0574C21.8977 10.0374 21.8427 10.0324 21.7852 10.0241C21.7452 10.0183 21.7093 9.99992 21.6668 9.99992H17.5002C17.0393 9.99992 16.6668 10.3733 16.6668 10.8333C16.6668 11.2933 17.0393 11.6666 17.5002 11.6666H19.8552L16.4918 15.5899L12.9285 13.4524C12.576 13.2391 12.1227 13.3174 11.8593 13.6333L7.69267 18.6333C7.3985 18.9866 7.446 19.5124 7.79934 19.8066C7.956 19.9366 8.14434 19.9999 8.33267 19.9999C8.57184 19.9999 8.8085 19.8983 8.9735 19.6999L12.6835 15.2483L16.2377 17.3816C16.5868 17.5908 17.0352 17.5174 17.2993 17.2091L20.8335 13.0858V14.9999C20.8335 15.4599 21.206 15.8333 21.6668 15.8333C22.1277 15.8333 22.5002 15.4599 22.5002 14.9999V10.8333C22.5002 10.8224 22.4943 10.8133 22.4935 10.8024Z" fill="white"/>
</mask>
<g mask="url(#mask0)">
<rect x="5" y="5" width="20" height="20" fill="white"/>
</g>
</svg>
