<svg width="20" height="18" viewBox="0 0 20 18" fill="none" xmlns="http://www.w3.org/2000/svg">
    <path fill-rule="evenodd" clip-rule="evenodd" d="M15.1822 17.8522C16.3804 18.3988 16.8297 17.2534 16.8297 17.2534L20 0.64532C19.975 -0.474036 18.5272 0.202783 18.5272 0.202783L0.778531 7.46558C0.778531 7.46558 -0.0702092 7.77796 0.00467962 8.32462C0.0795685 8.87129 0.753568 9.1316 0.753568 9.1316L5.22194 10.6935C5.22194 10.6935 6.56993 15.3011 6.84453 16.1861C7.09416 17.0452 7.31882 17.0712 7.31882 17.0712C7.56845 17.1753 7.79312 16.9931 7.79312 16.9931L10.6888 14.2598L15.1822 17.8522ZM15.9562 3.58681C15.9562 3.58681 16.5803 3.19634 16.5553 3.58681C16.5553 3.58681 16.6551 3.63888 16.3306 4.00332C16.0311 4.3157 8.96656 10.9277 8.01797 11.8128C7.94308 11.8648 7.89315 11.9429 7.89315 12.0471L7.61856 14.494C7.56863 14.7543 7.24411 14.7804 7.16922 14.5461L5.99597 10.5372C5.94604 10.381 5.99597 10.1988 6.14574 10.0947L15.9562 3.58681Z" fill="#5F5F6E" />
</svg>
    