<svg width="36" height="36" viewBox="0 0 36 36" fill="none" xmlns="http://www.w3.org/2000/svg">
    <path fill-rule="evenodd" clip-rule="evenodd" d="M17.9833 10.9384L9.94032 17.4109C9.29532 17.9299 8.35182 17.8279 7.83132 17.1829C7.31232 16.5364 7.41432 15.5929 8.05932 15.0724L17.0593 7.83039C17.6158 7.38339 18.4108 7.38789 18.9598 7.84839L27.9598 15.3484C28.5973 15.8779 28.6828 16.8229 28.1518 17.4604C27.8548 17.8159 27.4288 18.0004 26.9998 18.0004C26.6608 18.0004 26.3203 17.8849 26.0398 17.6524L17.9833 10.9384ZM17.0596 18.3311C17.6161 17.8826 18.4111 17.8886 18.9601 18.3476L27.9601 25.8476C28.5961 26.3786 28.6816 27.3236 28.1521 27.9596C27.8551 28.3166 27.4291 28.4996 26.9986 28.4996C26.6611 28.4996 26.3206 28.3856 26.0401 28.1516L17.9836 21.4391L9.94063 27.9101C9.29563 28.4306 8.35213 28.3286 7.83163 27.6821C7.31113 27.0371 7.41463 26.0936 8.05963 25.5731L17.0596 18.3311Z" fill="#4B4B62" />
    <mask id="mask0" mask-type="alpha" maskUnits="userSpaceOnUse" x="7" y="7" width="22" height="22">
        <path fill-rule="evenodd" clip-rule="evenodd" d="M17.9833 10.9384L9.94032 17.4109C9.29532 17.9299 8.35182 17.8279 7.83132 17.1829C7.31232 16.5364 7.41432 15.5929 8.05932 15.0724L17.0593 7.83039C17.6158 7.38339 18.4108 7.38789 18.9598 7.84839L27.9598 15.3484C28.5973 15.8779 28.6828 16.8229 28.1518 17.4604C27.8548 17.8159 27.4288 18.0004 26.9998 18.0004C26.6608 18.0004 26.3203 17.8849 26.0398 17.6524L17.9833 10.9384ZM17.0596 18.3311C17.6161 17.8826 18.4111 17.8886 18.9601 18.3476L27.9601 25.8476C28.5961 26.3786 28.6816 27.3236 28.1521 27.9596C27.8551 28.3166 27.4291 28.4996 26.9986 28.4996C26.6611 28.4996 26.3206 28.3856 26.0401 28.1516L17.9836 21.4391L9.94063 27.9101C9.29563 28.4306 8.35213 28.3286 7.83163 27.6821C7.31113 27.0371 7.41463 26.0936 8.05963 25.5731L17.0596 18.3311Z" fill="white" />
    </mask>
    <g mask="url(#mask0)">
        <rect width="36" height="36" fill="#4B4B62" />
    </g>
</svg>