<svg width="23" height="18" viewBox="0 0 23 18" fill="none" xmlns="http://www.w3.org/2000/svg">
<path d="M20.6819 4.49275C20.6819 4.69565 20.6819 4.89855 20.6819 5.07246C20.6819 11.0725 15.9254 18 7.25524 18C4.57592 18 2.10733 17.2464 0 15.971C0.361257 16 0.752618 16.029 1.11387 16.029C3.31152 16.029 5.35864 15.3043 6.98429 14.087C4.90707 14.058 3.16099 12.7246 2.58901 10.9275C2.89005 10.9855 3.16099 11.0145 3.49215 11.0145C3.91361 11.0145 4.33508 10.9565 4.72644 10.8406C2.5589 10.4348 0.933246 8.6087 0.933246 6.4058C0.933246 6.37681 0.933246 6.37681 0.933246 6.34783C1.56544 6.69565 2.28796 6.89855 3.07068 6.92754C1.80628 6.11594 0.963351 4.72464 0.963351 3.13043C0.963351 2.28986 1.20419 1.50725 1.59555 0.84058C3.91361 3.5942 7.40576 5.3913 11.3194 5.5942C11.2291 5.27536 11.199 4.89855 11.199 4.55072C11.199 2.02899 13.3063 0 15.9254 0C17.2801 0 18.5144 0.550725 19.3573 1.42029C20.4411 1.21739 21.4346 0.84058 22.3678 0.318841C22.0065 1.3913 21.2539 2.26087 20.2906 2.84058C21.2539 2.72464 22.1571 2.49275 23 2.11594C22.3979 3.04348 21.6152 3.85507 20.6819 4.49275Z" fill="#5F5F6E"/>
</svg>
