<svg width="28" height="16" viewBox="0 0 28 16" fill="none" xmlns="http://www.w3.org/2000/svg">
    <path fill-rule="evenodd" clip-rule="evenodd" d="M27.3576 1.08337C27.5523 0.458948 27.3576 0 26.4312 0H23.368C22.589 0 22.2302 0.396421 22.0355 0.833684C22.0355 0.833684 20.4776 4.48695 18.2708 6.86C17.5568 7.54695 17.2323 7.76526 16.8429 7.76526C16.6481 7.76526 16.3663 7.54695 16.3663 6.92253V1.08337C16.3663 0.333896 16.1403 0 15.4911 0H10.6775C10.1909 0 9.89812 0.34779 9.89812 0.677474C9.89812 1.388 11.0013 1.55179 11.1151 3.55011V7.89053C11.1151 8.84211 10.9366 9.01474 10.5471 9.01474C9.50866 9.01474 6.98282 5.34484 5.48447 1.14589C5.19084 0.329684 4.89633 0 4.11346 0H1.05025C0.175041 0 0 0.396421 0 0.833684C0 1.61432 1.03865 5.48632 4.8355 10.6072C7.36703 14.104 10.9331 16 14.1783 16C16.1256 16 16.3663 15.5789 16.3663 14.8537V12.2105C16.3663 11.3684 16.5508 11.2004 17.1671 11.2004C17.6218 11.2004 18.4005 11.4189 20.2181 13.1051C22.295 15.1032 22.6372 16 23.8056 16H26.8688C27.744 16 28.1816 15.5789 27.9291 14.748C27.653 13.9198 26.6613 12.7185 25.3455 11.2941C24.6315 10.4821 23.5605 9.60779 23.2362 9.17074C22.7818 8.60863 22.9115 8.35895 23.2362 7.85958C23.2362 7.85958 26.9681 2.80105 27.3576 1.08358V1.08337Z" fill="#5F5F6E" />
</svg>
    