<svg width="40" height="40" viewBox="0 0 40 40" fill="none" xmlns="http://www.w3.org/2000/svg">
    <rect width="40" height="40" rx="12" fill="#FFF6DE"/>
    <path fill-rule="evenodd" clip-rule="evenodd" d="M20 18.4999C19.173 18.4999 18.5 19.1729 18.5 19.9999C18.5 20.8269 19.173 21.4999 20 21.4999C20.827 21.4999 21.5 20.8269 21.5 19.9999C21.5 19.1729 20.827 18.4999 20 18.4999ZM20 23.4999C18.07 23.4999 16.5 21.9299 16.5 19.9999C16.5 18.0699 18.07 16.4999 20 16.4999C21.93 16.4999 23.5 18.0699 23.5 19.9999C23.5 21.9299 21.93 23.4999 20 23.4999ZM29.868 19.5019C29.229 18.3899 25.706 12.8159 19.729 13.0029C14.202 13.1439 10.986 18.0139 10.132 19.5019C9.956 19.8109 9.956 20.1889 10.132 20.4979C10.762 21.5949 14.162 26.9999 20.025 26.9999C20.106 26.9999 20.188 26.9989 20.271 26.9969C25.798 26.8559 29.014 21.9859 29.868 20.4979C30.044 20.1889 30.044 19.8109 29.868 19.5019Z" fill="#FFA10B"/>
    <mask id="mask0" mask-type="alpha" maskUnits="userSpaceOnUse" x="10" y="12" width="20" height="15">
    <path fill-rule="evenodd" clip-rule="evenodd" d="M20 18.4999C19.173 18.4999 18.5 19.1729 18.5 19.9999C18.5 20.8269 19.173 21.4999 20 21.4999C20.827 21.4999 21.5 20.8269 21.5 19.9999C21.5 19.1729 20.827 18.4999 20 18.4999ZM20 23.4999C18.07 23.4999 16.5 21.9299 16.5 19.9999C16.5 18.0699 18.07 16.4999 20 16.4999C21.93 16.4999 23.5 18.0699 23.5 19.9999C23.5 21.9299 21.93 23.4999 20 23.4999ZM29.868 19.5019C29.229 18.3899 25.706 12.8159 19.729 13.0029C14.202 13.1439 10.986 18.0139 10.132 19.5019C9.956 19.8109 9.956 20.1889 10.132 20.4979C10.762 21.5949 14.162 26.9999 20.025 26.9999C20.106 26.9999 20.188 26.9989 20.271 26.9969C25.798 26.8559 29.014 21.9859 29.868 20.4979C30.044 20.1889 30.044 19.8109 29.868 19.5019Z" fill="white"/>
    </mask>
    <g mask="url(#mask0)">
    <rect x="8" y="8" width="24" height="24" fill="#FFA10B"/>
    </g>
    </svg>
    